# xmcd CD database file generated by Grip 3.2.0
# 
# Track frame offsets:
#       150
#       16100
#       34775
#       51417
#       65425
#       84115
#       104467
#       116375
#       135167
#       153512
#       175780
#       198545
#       217607
#       239295
# 
# Disc length: 3453 seconds
# 
# Revision: 1
# Processed by: cddbd v1.5.2PL0 Copyright (c) Steve Scherf et al.
# Submitted via: Grip 3.2.0
# 
DISCID=a90d7b0e
DTITLE=Blues Rvue - Blues Music Sampler, April - May 2005
DYEAR=2005
DGENRE=Blues
TTITLE0=Mac Arnold and Plate Full o' Blues - Call Mac Arnold
TTITLE1=Ernie Payne - Curse of Hamm
TTITLE2=Al Bastle - I Got to Love and  Be Loved
TTITLE3=Rocky Zharp - Granny's Boogie
TTITLE4=Li'l Ronnie and the Grand Dukes - Love Trance
TTITLE5=Roy Rogers and the Delta Rhythm Kings - Ever Since I Lost You
TTITLE6=Barbara Blue - Red Cadillac and the Blues
TTITLE7=Rich DelGrosso, Gary Allegretto and Ernie Scarbrough - Nose Outta My
TTITLE7=Business
TTITLE8=Wayne Baker Brooks - Tell Me
TTITLE9=Luther Badman Keith - Six Figure Salary
TTITLE10=Doug MacLeod - The Devil Is Beating His Wife
TTITLE11=Rennegades - Lovesick Blues
TTITLE12=Measured Chaos - Spreadin The News
TTITLE13=Barebones - Swing Down Chariot
EXTD=
EXTT0=Mac Arnold and Plate Full o' Blues
EXTT1=Ernie Payne
EXTT2=Al Basile
EXTT3=Rocky Zharp
EXTT4=Li'l Ronnie and the Grand Dukes
EXTT5=Roy Rogers and the Delta Rhythm Kings
EXTT6=Barbara Blue
EXTT7=Rich DelGrosso, Gary Allegretto, and Ernie Scarbrough
EXTT8=Wayne Baker Brooks
EXTT9=Luther Badman Keith
EXTT10=Doug MacLeod
EXTT11=Rennegades
EXTT12=Measured Chaos
EXTT13=Barebones
PLAYORDER=
